<?xml version="1.0" encoding="iso-8859-1"?>
<!-- Generator: Adobe Illustrator 19.0.0, SVG Export Plug-In . SVG Version: 6.00 Build 0)  -->
<svg version="1.1" id="Layer_1" xmlns="http://www.w3.org/2000/svg" xmlns:xlink="http://www.w3.org/1999/xlink" x="0px" y="0px"
	 viewBox="0 0 496.2 496.2" style="enable-background:new 0 0 496.2 496.2;" xml:space="preserve">
<path style="fill:#25B7D3;" d="M496.2,248.1C496.2,111.1,385.1,0,248.1,0S0,111.1,0,248.1s111.1,248.1,248.1,248.1
	S496.2,385.1,496.2,248.1z"/>
<rect x="118.6" y="118.6" style="fill:#353535;" width="259" height="259"/>
<path style="fill:#EAE5DF;" d="M366.8,181.2c0,5.7-4.6,10.3-10.3,10.3H139.6c-5.7,0-10.3-4.6-10.3-10.3v-45.6
	c0-5.7,4.6-10.3,10.3-10.3h216.9c5.7,0,10.3,4.6,10.3,10.3L366.8,181.2L366.8,181.2z"/>
<circle cx="248.1" cy="249.8" r="37.9"/>
<circle style="fill:#A3D5E0;" cx="248.1" cy="249.8" r="28.4"/>
<path style="fill:#6D6A64;" d="M258.1,359.3c0,5.7-4.6,10.3-10.3,10.3l0,0c-5.7,0-10.3-4.6-10.3-10.3v-45.6
	c0-5.7,4.6-10.3,10.3-10.3l0,0c5.7,0,10.3,4.6,10.3,10.3V359.3z"/>
<g>
	<path style="fill:#353535;" d="M344.4,150.9H152.5c-0.7,0-1.3-0.8-1.3-1.8s0.6-1.8,1.3-1.8h191.9c0.7,0,1.3,0.8,1.3,1.8
		S345.1,150.9,344.4,150.9z"/>
	<path style="fill:#353535;" d="M344.4,151.8H152.5c-1.2,0-2.2-1.2-2.2-2.7s0.9-2.7,2.2-2.7h191.9c1.2,0,2.2,1.2,2.2,2.7
		S345.6,151.8,344.4,151.8z M152.5,148.1c-0.1,0-0.4,0.4-0.4,1s0.3,1,0.4,1h191.9c0.1,0,0.4-0.4,0.4-1s-0.3-1-0.4-1H152.5z"/>
	<path style="fill:#353535;" d="M344.4,169.7H152.5c-0.7,0-1.3-0.8-1.3-1.8s0.6-1.8,1.3-1.8h191.9c0.7,0,1.3,0.8,1.3,1.8
		C345.7,168.9,345.1,169.7,344.4,169.7z"/>
	<path style="fill:#353535;" d="M344.4,170.6H152.5c-1.2,0-2.2-1.2-2.2-2.7s0.9-2.7,2.2-2.7h191.9c1.2,0,2.2,1.2,2.2,2.7
		S345.6,170.6,344.4,170.6z M152.5,166.9c-0.1,0-0.4,0.4-0.4,1s0.3,1,0.4,1h191.9c0.1,0,0.4-0.4,0.4-1s-0.3-1-0.4-1H152.5z"/>
</g>
<g>
</g>
<g>
</g>
<g>
</g>
<g>
</g>
<g>
</g>
<g>
</g>
<g>
</g>
<g>
</g>
<g>
</g>
<g>
</g>
<g>
</g>
<g>
</g>
<g>
</g>
<g>
</g>
<g>
</g>
</svg>
