<?xml version="1.0" encoding="iso-8859-1"?>
<!-- Generator: Adobe Illustrator 19.0.0, SVG Export Plug-In . SVG Version: 6.00 Build 0)  -->
<svg version="1.1" id="Layer_1" xmlns="http://www.w3.org/2000/svg" xmlns:xlink="http://www.w3.org/1999/xlink" x="0px" y="0px"
	 viewBox="0 0 496.2 496.2" style="enable-background:new 0 0 496.2 496.2;" xml:space="preserve">
<path style="fill:#29C183;" d="M496.2,248.1C496.2,111.1,385.1,0,248.1,0S0,111.1,0,248.1s111.1,248.1,248.1,248.1
	S496.2,385.1,496.2,248.1z"/>
<path style="fill:#9B6627;" d="M342.6,388.8H154c-2.3,0-4.1,1.9-4.1,4.1v34.7c0,2.3,1.9,4.1,4.1,4.1h30.6c2.3,0,4.1-1.9,4.1-4.1
	v-10.7h119.1v10.7c0,2.3,1.9,4.1,4.1,4.1h30.6c2.3,0,4.1-1.9,4.1-4.1v-34.7C346.7,390.7,344.9,388.8,342.6,388.8z"/>
<path style="fill:#D61E1E;" d="M352.5,284V165.3c0-62.4-46.7-113-104.2-113s-104.2,50.6-104.2,113v119.3l0,0v51.6
	c0,6.3,208.5,0,208.5,0v-51.6C352.5,284.4,352.5,284.2,352.5,284z"/>
<path style="fill:#FDD951;" d="M343.7,279V170.4c0-57.1-42.7-103.5-95.4-103.5s-95.4,46.3-95.4,103.5v109.2l0,0v92.5
	c0,5.8,4.7,10.4,10.4,10.4h170c5.8,0,10.4-4.7,10.4-10.4v-92.6C343.7,279.3,343.7,279.2,343.7,279z"/>
<path style="fill:#FFBD02;" d="M333.1,384.5H163.5c-7,0-12.7-5.7-12.7-12.7V170.5c0-28.2,10.1-54.6,28.5-74.6s42.9-31,69-31
	s50.6,11,69,31c18.4,19.9,28.5,46.4,28.5,74.6v108.4c0,0.2,0,0.4,0,0.6v92.4C345.8,378.8,340.1,384.5,333.1,384.5z M155.3,279.5
	v92.4c0,4.5,3.7,8.2,8.2,8.2h169.6c4.5,0,8.2-3.7,8.2-8.2v-92.4c0-0.1,0-0.3,0-0.4V279V170.5c0-55.7-41.7-101-93-101
	s-93,45.3-93,101L155.3,279.5L155.3,279.5z"/>
<rect x="234.2" y="61.5" style="fill:#D61E1E;" width="29" height="18.2"/>
<path style="fill:#602213;" d="M248.3,79.5c-44.1,0-79.8,38.8-79.8,86.6v183.6h159.6V166.1C328.1,118.3,292.4,79.5,248.3,79.5z"/>
<g>
	<path style="fill:#833119;" d="M248.3,84c-41.6,0-75.3,36.5-75.3,81.6v203.3h150.5V165.6C323.5,120.5,289.9,84,248.3,84z"/>
	<path style="fill:#833119;" d="M354.6,328H142v58.2c0,6.4,5.2,11.6,11.6,11.6H343c6.4,0,11.6-5.2,11.6-11.6V328z"/>
</g>
<g>
	<path style="fill:#682212;" d="M176.3,328H142v58.2c0,6.4,5.2,11.6,11.6,11.6h22.7V328z"/>
	<path style="fill:#682212;" d="M320.2,328h34.3v58.2c0,6.4-5.2,11.6-11.6,11.6h-22.7L320.2,328L320.2,328z"/>
</g>
<rect x="203.2" y="231.3" style="fill:#FEE897;" width="90.2" height="118.8"/>
<path style="fill:#8B8C8B;" d="M275,242.3l-8.2-11h-5l10.7,14.4l-10.7,14.5L251,245.7l10.7-14.4h-5l-8.2,11l-8.2-11h-5l10.7,14.4
	l-10.8,14.5l-10.8-14.5l10.7-14.4h-5l-8.2,11l-8.2-11h-5l10.7,14.4l-10.8,14.5l-1-1.3v9.4l1-1.3l10.8,14.5L208.6,296l-1-1.3v5.9
	c0,1.1,0,2.2,0.1,3.3l0.9-1.2l10.8,14.5l-5.8,7.8c0.7,1.3,1.4,2.6,2.2,3.8l6.1-8.2l10.8,14.5l-4.7,6.3c1.1,0.8,2.3,1.5,3.5,2.1
	l3.7-5l6.3,8.6c1.8,0.4,3.6,0.6,5.5,0.6l-9.3-12.6l10.8-14.5l10.8,14.5l-9.3,12.6c1.9-0.1,3.7-0.3,5.5-0.7l6.3-8.5l3.6,4.9
	c1.2-0.6,2.3-1.3,3.5-2.1l-4.6-6.2l10.8-14.5l5.9,8c0.8-1.2,1.5-2.5,2.2-3.8l-5.6-7.6l10.8-14.5l0.6,0.8c0.1-1,0.1-2,0.1-3V295
	l-0.7,0.9l-10.8-14.5l10.8-14.5l0.7,0.9v-8.6l-0.7,0.9l-10.8-14.5l10.7-14.4h-5L275,242.3z M272.4,281.6l-10.8,14.5l-10.8-14.5
	l10.8-14.5L272.4,281.6z M248.4,249.1l10.8,14.5l-10.8,14.5l-10.8-14.5L248.4,249.1z M245.9,281.6l-10.8,14.5l-10.8-14.5l10.8-14.5
	L245.9,281.6z M211.2,263.7l10.8-14.5l10.8,14.5L222,278.2L211.2,263.7z M211.2,299.5l10.7-14.5l10.8,14.5l-10.8,14.6L211.2,299.5z
	 M235.2,332l-10.8-14.5l10.8-14.5l10.8,14.5L235.2,332z M237.7,299.6l10.8-14.5l10.8,14.5l-10.9,14.5L237.7,299.6z M261.7,332
	l-10.8-14.5l10.8-14.5l10.7,14.5L261.7,332z M285.7,299.5L275,314.1l-10.8-14.5l10.8-14.5L285.7,299.5z M285.7,263.7l-10.8,14.5
	l-10.8-14.5l10.8-14.5L285.7,263.7z"/>
<g>
	<polygon style="fill:#555957;" points="261.7,231.2 261.6,231.3 261.8,231.3 	"/>
	<polygon style="fill:#555957;" points="235.2,231.2 235.1,231.3 235.3,231.3 	"/>
</g>
<circle style="fill:#8B8C8B;" cx="249.8" cy="315.4" r="15.8"/>
<circle style="fill:#EF3030;" cx="249.8" cy="315.4" r="12.3"/>
<path style="fill:#FDD951;" d="M288.9,300.8c0,26.1-18.2,47.3-40.6,47.3s-40.6-21.2-40.6-47.3v-69.5h-21.9v70.4
	c0,19.2,6.5,37.3,18.2,50.9c11.8,13.7,27.5,21.2,44.3,21.2c16.7,0,32.5-7.5,44.3-21.2c11.7-13.6,18.2-31.7,18.2-50.9v-70.4h-21.9
	V300.8z"/>
<path style="fill:#F7D152;" d="M309.8,147.6c-2.6-15.3-10.2-29.2-21.2-39.3c-11.3-10.2-25.5-15.9-40.2-15.9
	c-14.7,0-29,5.6-40.2,15.9c-11.1,10.1-18.6,24-21.2,39.3c-0.1,0.7,0.1,1.4,0.5,1.9s1.1,0.8,1.8,0.8h118.3c0.7,0,1.4-0.3,1.8-0.8
	C309.7,149,309.9,148.3,309.8,147.6z"/>
<path style="fill:#FEE897;" d="M313.2,161.1H182.5c-0.8,0-1.4,0.6-1.4,1.4v33c0,0.8,0.6,1.4,1.4,1.4h130.7c0.8,0,1.4-0.6,1.4-1.4
	v-33C314.5,161.7,313.9,161.1,313.2,161.1z"/>
<path style="fill:#C1C1C1;" d="M257.2,197.9v-38c0-0.4-0.4-0.7-0.9-0.7h-17.1c-0.5,0-0.9,0.3-0.9,0.7v38c0,0.4,0.4,0.7,0.9,0.7h17.1
	C256.8,198.6,257.2,198.3,257.2,197.9z"/>
<g>
	<circle style="fill:#D61E1E;" cx="245" cy="164.9" r="1.7"/>
	<circle style="fill:#D61E1E;" cx="250.6" cy="164.9" r="1.7"/>
	<circle style="fill:#D61E1E;" cx="245" cy="170" r="1.7"/>
	<circle style="fill:#D61E1E;" cx="250.6" cy="170" r="1.7"/>
	<circle style="fill:#D61E1E;" cx="245" cy="175" r="1.7"/>
	<circle style="fill:#D61E1E;" cx="250.6" cy="175" r="1.7"/>
	<circle style="fill:#D61E1E;" cx="245" cy="180" r="1.7"/>
	<circle style="fill:#D61E1E;" cx="250.6" cy="180" r="1.7"/>
	<circle style="fill:#D61E1E;" cx="245" cy="185.1" r="1.7"/>
	<circle style="fill:#D61E1E;" cx="250.6" cy="185.1" r="1.7"/>
	<circle style="fill:#D61E1E;" cx="242.2" cy="192" r="1.7"/>
	<circle style="fill:#D61E1E;" cx="247.8" cy="192" r="1.7"/>
	<circle style="fill:#D61E1E;" cx="253.3" cy="192" r="1.7"/>
</g>
<g>
	<path style="fill:#FFFBEE;" d="M207.9,164.7h-19c-0.4,0-0.8,0.3-0.8,0.8v5.4c0,0.4,0.3,0.8,0.8,0.8h19c0.4,0,0.8-0.3,0.8-0.8v-5.4
		C208.7,165,208.3,164.7,207.9,164.7z"/>
	<path style="fill:#FFFBEE;" d="M233.8,164.7h-19c-0.4,0-0.8,0.3-0.8,0.8v5.4c0,0.4,0.3,0.8,0.8,0.8h19c0.4,0,0.8-0.3,0.8-0.8v-5.4
		C234.5,165,234.2,164.7,233.8,164.7z"/>
	<path style="fill:#FFFBEE;" d="M207.9,175.7h-19c-0.4,0-0.8,0.3-0.8,0.8v5.4c0,0.4,0.3,0.8,0.8,0.8h19c0.4,0,0.8-0.3,0.8-0.8v-5.4
		C208.7,176.1,208.3,175.7,207.9,175.7z"/>
	<path style="fill:#FFFBEE;" d="M233.8,175.7h-19c-0.4,0-0.8,0.3-0.8,0.8v5.4c0,0.4,0.3,0.8,0.8,0.8h19c0.4,0,0.8-0.3,0.8-0.8v-5.4
		C234.5,176.1,234.2,175.7,233.8,175.7z"/>
	<path style="fill:#FFFBEE;" d="M207.9,186.3h-19c-0.4,0-0.8,0.3-0.8,0.8v5.4c0,0.4,0.3,0.8,0.8,0.8h19c0.4,0,0.8-0.3,0.8-0.8v-5.4
		C208.7,186.6,208.3,186.3,207.9,186.3z"/>
	<path style="fill:#FFFBEE;" d="M233.8,186.3h-19c-0.4,0-0.8,0.3-0.8,0.8v5.4c0,0.4,0.3,0.8,0.8,0.8h19c0.4,0,0.8-0.3,0.8-0.8v-5.4
		C234.5,186.6,234.2,186.3,233.8,186.3z"/>
	<path style="fill:#FFFBEE;" d="M280.5,164.7h-19c-0.4,0-0.8,0.3-0.8,0.8v5.4c0,0.4,0.3,0.8,0.8,0.8h19c0.4,0,0.8-0.3,0.8-0.8v-5.4
		C281.3,165,280.9,164.7,280.5,164.7z"/>
	<path style="fill:#FFFBEE;" d="M306.4,164.7h-19c-0.4,0-0.8,0.3-0.8,0.8v5.4c0,0.4,0.3,0.8,0.8,0.8h19c0.4,0,0.8-0.3,0.8-0.8v-5.4
		C307.1,165,306.8,164.7,306.4,164.7z"/>
	<path style="fill:#FFFBEE;" d="M280.5,175.7h-19c-0.4,0-0.8,0.3-0.8,0.8v5.4c0,0.4,0.3,0.8,0.8,0.8h19c0.4,0,0.8-0.3,0.8-0.8v-5.4
		C281.3,176.1,280.9,175.7,280.5,175.7z"/>
	<path style="fill:#FFFBEE;" d="M306.4,175.7h-19c-0.4,0-0.8,0.3-0.8,0.8v5.4c0,0.4,0.3,0.8,0.8,0.8h19c0.4,0,0.8-0.3,0.8-0.8v-5.4
		C307.1,176.1,306.8,175.7,306.4,175.7z"/>
	<path style="fill:#FFFBEE;" d="M280.5,186.3h-19c-0.4,0-0.8,0.3-0.8,0.8v5.4c0,0.4,0.3,0.8,0.8,0.8h19c0.4,0,0.8-0.3,0.8-0.8v-5.4
		C281.3,186.6,280.9,186.3,280.5,186.3z"/>
	<path style="fill:#FFFBEE;" d="M306.4,186.3h-19c-0.4,0-0.8,0.3-0.8,0.8v5.4c0,0.4,0.3,0.8,0.8,0.8h19c0.4,0,0.8-0.3,0.8-0.8v-5.4
		C307.1,186.6,306.8,186.3,306.4,186.3z"/>
</g>
<g>
	<path style="fill:#8B8C8B;" d="M179.6,162h-38c-0.4,0-0.7,0.4-0.7,0.9v4.5c0,0.5,0.3,0.9,0.7,0.9h38c0.4,0,0.7-0.4,0.7-0.9v-4.5
		C180.3,162.4,180,162,179.6,162z"/>
	<path style="fill:#8B8C8B;" d="M179.6,175.8h-38c-0.4,0-0.7,0.4-0.7,0.9v4.5c0,0.5,0.3,0.9,0.7,0.9h38c0.4,0,0.7-0.4,0.7-0.9v-4.5
		C180.3,176.2,180,175.8,179.6,175.8z"/>
	<path style="fill:#8B8C8B;" d="M179.6,189.8h-38c-0.4,0-0.7,0.4-0.7,0.9v4.5c0,0.5,0.3,0.9,0.7,0.9h38c0.4,0,0.7-0.4,0.7-0.9v-4.5
		C180.3,190.2,180,189.8,179.6,189.8z"/>
	<path style="fill:#8B8C8B;" d="M182.7,197.9v-38c0-0.4-0.4-0.7-0.9-0.7h-4.5c-0.5,0-0.9,0.3-0.9,0.7v38c0,0.4,0.4,0.7,0.9,0.7h4.5
		C182.3,198.6,182.7,198.3,182.7,197.9z"/>
	<path style="fill:#8B8C8B;" d="M354.6,162h-38c-0.4,0-0.7,0.4-0.7,0.9v4.5c0,0.5,0.3,0.9,0.7,0.9h38c0.4,0,0.7-0.4,0.7-0.9v-4.5
		C355.3,162.4,355,162,354.6,162z"/>
	<path style="fill:#8B8C8B;" d="M354.6,175.8h-38c-0.4,0-0.7,0.4-0.7,0.9v4.5c0,0.5,0.3,0.9,0.7,0.9h38c0.4,0,0.7-0.4,0.7-0.9v-4.5
		C355.3,176.2,355,175.8,354.6,175.8z"/>
	<path style="fill:#8B8C8B;" d="M354.6,189.8h-38c-0.4,0-0.7,0.4-0.7,0.9v4.5c0,0.5,0.3,0.9,0.7,0.9h38c0.4,0,0.7-0.4,0.7-0.9v-4.5
		C355.3,190.2,355,189.8,354.6,189.8z"/>
	<path style="fill:#8B8C8B;" d="M319.6,197.9v-38c0-0.4-0.4-0.7-0.9-0.7h-4.5c-0.5,0-0.9,0.3-0.9,0.7v38c0,0.4,0.4,0.7,0.9,0.7h4.5
		C319.2,198.6,319.6,198.3,319.6,197.9z"/>
</g>
<g>
	<path style="fill:#6D6D6D;" d="M253.3,383.1c0,2-1.7,3.7-3.7,3.7h-3.7c-2,0-3.7-1.7-3.7-3.7l2-36.5c0-1.3,1-2.3,2.3-2.3h2.3
		c1.3,0,2.3,1,2.3,2.3L253.3,383.1z"/>
	<circle style="fill:#6D6D6D;" cx="193.6" cy="375.3" r="10.6"/>
</g>
<g>
	<path style="fill:#8B8C8B;" d="M210.5,60c4.2-1.6,11.8-6,14,1.4l8.3,26l14.4-1l-0.4-9.4l-8.2,0.5c0,0-6.6-8.6-0.7-12.3
		c1.4-0.9,6.6-1.5,7.4-1.7c0,0-0.1-4.9-1.2-5.3c-3.5-3.5-9.7,2.7-9.7,2.7l-3.6-5.2c0,0-3.8-6.6-9.3-5.2c-5.5,1.5-11.4,7.8-11.4,7.8
		s-10.1-2.9-12.2,8C197.8,66.3,206.3,61.6,210.5,60z"/>
	<path style="fill:#8B8C8B;" d="M286,60c-4.2-1.6-11.8-6-14,1.4l-8.3,26l-14.3-1l0.4-9.4l8.2,0.5c0,0,6.6-8.6,0.7-12.3
		c-1.4-0.9-6.6-1.5-7.4-1.7c0,0,0.1-4.9,1.2-5.3c3.4-3.4,9.7,2.7,9.7,2.7l3.6-5.2c0,0,3.8-6.6,9.3-5.2c5.5,1.5,11.4,7.8,11.4,7.8
		s10.1-2.9,12.2,8C298.6,66.3,290.2,61.6,286,60z"/>
</g>
<g>
</g>
<g>
</g>
<g>
</g>
<g>
</g>
<g>
</g>
<g>
</g>
<g>
</g>
<g>
</g>
<g>
</g>
<g>
</g>
<g>
</g>
<g>
</g>
<g>
</g>
<g>
</g>
<g>
</g>
</svg>
