<?xml version="1.0" encoding="iso-8859-1"?>
<!-- Generator: Adobe Illustrator 19.0.0, SVG Export Plug-In . SVG Version: 6.00 Build 0)  -->
<svg version="1.1" id="Layer_1" xmlns="http://www.w3.org/2000/svg" xmlns:xlink="http://www.w3.org/1999/xlink" x="0px" y="0px"
	 viewBox="0 0 496.2 496.2" style="enable-background:new 0 0 496.2 496.2;" xml:space="preserve">
<path style="fill:#25B7D3;" d="M496.2,248.1C496.2,111.1,385.1,0,248.1,0S0,111.1,0,248.1s111.1,248.1,248.1,248.1
	S496.2,385.1,496.2,248.1z"/>
<path style="fill:#EAEADA;" d="M237.3,120.7L57.4,174.4c-1.6,0.5-2.6,2.2-2.1,3.8l59,197.6c0.5,1.6,2.2,2.6,3.8,2.1l179.8-53.7
	c1.6-0.5,2.6-2.2,2.1-3.8l-59-197.6C240.6,121.2,238.9,120.2,237.3,120.7z"/>
<rect x="91.023" y="159.882" transform="matrix(-0.9582 0.2861 -0.2861 -0.9582 402.8222 401.6095)" style="fill:#3A3A38;" width="162.1" height="140.7"/>
<polygon style="fill:#4F4F4E;" points="114.5,320.8 74.2,186 229.6,139.6 "/>
<path style="fill:#FFFFFF;" d="M439.4,199.3l-165.2-89.2c-1.5-0.8-3.4-0.3-4.2,1.2l-98,181.4c-0.8,1.5-0.3,3.4,1.2,4.2l165.2,89.2
	c1.5,0.8,3.4,0.3,4.2-1.2l98-181.4C441.4,202,440.9,200.1,439.4,199.3z"/>
<path style="fill:#51514F;" d="M343.9,343.9c-0.4,0-0.8-0.1-1.2-0.3l-81-43c-1.2-0.6-1.7-2.2-1-3.4c0.6-1.2,2.2-1.7,3.4-1l81,43
	c1.2,0.6,1.7,2.2,1,3.4C345.7,343.4,344.8,343.9,343.9,343.9z"/>
<rect x="234.694" y="160.181" transform="matrix(-0.8798 -0.4753 0.4753 -0.8798 483.9648 583.4283)" style="fill:#3A3A38;" width="162.097" height="140.697"/>
<polygon style="fill:#4F4F4E;" points="211,253.9 277.9,130.1 420.6,207.2 "/>
<g>
</g>
<g>
</g>
<g>
</g>
<g>
</g>
<g>
</g>
<g>
</g>
<g>
</g>
<g>
</g>
<g>
</g>
<g>
</g>
<g>
</g>
<g>
</g>
<g>
</g>
<g>
</g>
<g>
</g>
</svg>
