<?xml version="1.0" encoding="iso-8859-1"?>
<!-- Generator: Adobe Illustrator 19.0.0, SVG Export Plug-In . SVG Version: 6.00 Build 0)  -->
<svg version="1.1" id="Layer_1" xmlns="http://www.w3.org/2000/svg" xmlns:xlink="http://www.w3.org/1999/xlink" x="0px" y="0px"
	 viewBox="0 0 496.2 496.2" style="enable-background:new 0 0 496.2 496.2;" xml:space="preserve">
<path style="fill:#4ABC96;" d="M496.2,248.1C496.2,111.1,385.1,0,248.1,0S0,111.1,0,248.1s111.1,248.1,248.1,248.1
	S496.2,385.1,496.2,248.1z"/>
<g>
	<rect x="88" y="199.6" style="fill:#7C6C57;" width="31.4" height="35.9"/>
	<rect x="295.1" y="196.2" style="fill:#7C6C57;" width="83" height="53.4"/>
</g>
<rect x="88" y="202.4" style="fill:#8E7E6B;" width="290" height="9.7"/>
<g>
	<rect x="305.2" y="191.3" style="fill:#534633;" width="6" height="63.2"/>
	<polygon style="fill:#534633;" points="375.5,260.5 413.2,260.5 417.6,262.9 425,262.9 425,183 417.3,183 413.2,185.4 375.5,185.4 
			"/>
</g>
<path style="fill:#E8D78E;" d="M417.3,183h-2.2c-1.1,0-1.9,1.1-1.9,2.4v75.1c0,1.3,0.8,2.4,1.9,2.4h2.1c1,0,1.9-1.1,1.9-2.4v-75.1
	C419.2,184,418.3,183,417.3,183z"/>
<rect x="76.5" y="191" style="fill:#534633;" width="14.6" height="53.1"/>
<g>
	<rect x="71.2" y="186.5" style="fill:#E8D78E;" width="5.2" height="62"/>
	<circle style="fill:#E8D78E;" cx="215.2" cy="400.4" r="5.9"/>
</g>
<path style="fill:#534633;" d="M186.3,297.8l-1.1,8.7l15.4,1.4c0,0,18.8,3.4,15.6,24.4c0,0-8.6,45.1-10,52.4s-5,25.3,11.5,25.3
	l32.1-0.7l17.3-111.4L186.3,297.8z"/>
<path style="fill:#7C6C57;" d="M289.5,298.3H185.2c-5.4,0-9.7-4.4-9.7-9.7l0,0c0-5.4,4.4-9.7,9.7-9.7h104.3L289.5,298.3L289.5,298.3
	z"/>
<circle style="fill:#E8D78E;" cx="186.1" cy="288.8" r="5.9"/>
<circle style="fill:#4ABC96;" cx="215.2" cy="399.4" r="5.9"/>
<path style="fill:#E8D78E;" d="M307.4,278.8H116.1v-97.3c0-17.3,14-31.2,31.2-31.2h160.1V278.8z"/>
<rect x="326.5" y="191.3" style="fill:#534633;" width="17.2" height="63.2"/>
<rect x="293.1" y="150.2" style="fill:#D3C484;" width="2.9" height="128.6"/>
<g>
	<circle style="fill:#534633;" cx="124" cy="271.4" r="2.2"/>
	<circle style="fill:#534633;" cx="285" cy="271.4" r="2.2"/>
	<circle style="fill:#534633;" cx="285" cy="156.8" r="2.2"/>
	<circle style="fill:#534633;" cx="124" cy="203.3" r="2.2"/>
</g>
<g>
	<rect x="268.8" y="230.3" style="fill:#7C6C57;" width="7.7" height="28.1"/>
	<rect x="251.9" y="230.3" style="fill:#7C6C57;" width="7.7" height="28.1"/>
</g>
<rect x="251.9" y="251.4" style="fill:#534633;" width="7.7" height="7"/>
<rect x="252.5" y="254" style="fill:#E8D78E;" width="6.5" height="1.9"/>
<rect x="268.8" y="237.3" style="fill:#534633;" width="7.7" height="7"/>
<path style="fill:#7C6C57;" d="M240.3,253.2c0,3.1-2.5,5.6-5.6,5.6h-53.8c-3.1,0-5.6-2.5-5.6-5.6v-53.8c0-3.1,2.5-5.6,5.6-5.6h53.8
	c3.1,0,5.6,2.5,5.6,5.6V253.2z"/>
<rect x="269.3" y="239.8" style="fill:#E8D78E;" width="6.5" height="1.9"/>
<rect x="131.4" y="251.4" style="fill:#7C6C57;" width="28.1" height="7.7"/>
<rect x="148.1" y="251.7" style="fill:#534633;" width="7.7" height="7"/>
<rect x="148.7" y="254.2" style="fill:#E8D78E;" width="6.5" height="1.9"/>
<g>
</g>
<g>
</g>
<g>
</g>
<g>
</g>
<g>
</g>
<g>
</g>
<g>
</g>
<g>
</g>
<g>
</g>
<g>
</g>
<g>
</g>
<g>
</g>
<g>
</g>
<g>
</g>
<g>
</g>
</svg>
