<?xml version="1.0" encoding="iso-8859-1"?>
<!-- Generator: Adobe Illustrator 19.0.0, SVG Export Plug-In . SVG Version: 6.00 Build 0)  -->
<svg version="1.1" id="Layer_1" xmlns="http://www.w3.org/2000/svg" xmlns:xlink="http://www.w3.org/1999/xlink" x="0px" y="0px"
	 viewBox="0 0 496.2 496.2" style="enable-background:new 0 0 496.2 496.2;" xml:space="preserve">
<path style="fill:#4ABC96;" d="M496.2,248.1C496.2,111.1,385.1,0,248.1,0S0,111.1,0,248.1s111.1,248.1,248.1,248.1
	S496.2,385.1,496.2,248.1z"/>
<path style="fill:#EA4949;" d="M270,117c0,0,43.8-48.8,76.1-14.9c6.2,6.5,10.7,25,16.6,38.3c0,0,13.3,27.3,28.1,33.2
	c0,0,13.3,9.6,17.7,11.8c0,0,11.1,3.7,5.2,10.3c0,0-17,18.5-23.6,27.3c0,0-25.1,27.3-33.2,53.9c0,0-17,84.2-75.4,107.9
	c0,0-35.5,51-72.4,53.2c0,0-58.4,3.7-87.9-37.7c0,0-25.7-41.6-3-102.5c7.5-20.2,17.7-36.4,27.3-48.9c0,0-11.8-26.6-19.2-34.7
	c0,0-14-16.3-4.4-19.2c0,0,27.9-14.5,36.8-27.1c0,0,32.9-54.8,44.3-63.4c15.5-11.8,36.2-16.4,43.8-13.7
	C257.1,94.5,264.3,102.5,270,117z"/>
<path style="fill:#1E181A;" d="M143.3,202.4c0,0,42.1-53.2,79.8-47.3c0,0,15.5,5.9,22.9,11.8c0,0,13.3,3,25.1-3.7
	c0,0,34.7-18.5,51-0.7c0,0,20.9,20.5,27.3,25.1c0,0,18.5,8.1,33.2,8.9c0,0-44.3,48.8-54.7,68c0,0-25.1,67.2-28.8,78.3
	c-3.7,11.1-8.9,31-12.6,33.2s-8.9,5.9-11.1,8.9s-26.6,44.3-57.6,48l-56.2-203.2C161.7,229.7,153.6,213.5,143.3,202.4z"/>
<path style="fill:#EA4949;" d="M256.7,212c0,0,52.1,7.2,74.8-43.2c0,0,19.8,24.6,40.5,34.9c0,0-37.7,39.3-53.8,67
	c0,0-24.4,46.5-42.7,105.8c0,0-29,57.6-65.9,59.8c0,0-59.3,10-88.5-36c0,0-25.7-41.6-3-102.5c7.5-20.2,17.7-36.4,27.3-48.9
	c0,0,23.1-32.5,73-63C218.5,185.9,236.2,210.9,256.7,212z"/>
<g>
	<path style="fill:#F8F9FE;" d="M212.7,177.3c0,0,3,19.9,27.3,16.3c0,0,14.8-4.4,20.7-10.3c0,0,12.6,12.6,23.6,12.6
		c0,0,17.7,1.5,31.8-14c0,0,5.9,22.9,33.2,5.9c-6.1-4.4-27.3-25.1-27.3-25.1c-16.3-17.7-51,0.7-51,0.7c-11.8,6.6-25.1,3.7-25.1,3.7
		c-7.3-6.1-22.8-12-22.8-12c-13.9-2.2-28.3,3.6-41,11.9C184.5,172.4,192.1,182.8,212.7,177.3z"/>
	<path style="fill:#F8F9FE;" d="M194.4,245.8c-8.3,11.1-24.1,38.2-29.1,56c0,0-10,29.4-10,34.9c0,0,0,12.2-7.8,12.7
		s-10.5-10.5-7.2-27.7c0,0,9.7-42.7,34.4-70.4c10.9-12.3,24.4-24.9,28.3-26.6c0,0,7.2-0.6,4.4,3.3
		C207.4,228.1,202.7,234.7,194.4,245.8z"/>
	<path style="fill:#F8F9FE;" d="M299.8,231.1c-1.7,1.6-16.5,19.4-22.6,30.2c-5.3,9.4-18.8,39.3-23.8,53.2
		c-5,13.9-18.3,43.8-20.5,46.5c-2.2,2.8-8.3,13.9-5,17.7c3.3,3.9,6.6,12.7,19.4,5c0,0,12.7-14.4,16.1-33.8c0,0,12.5-48.8,18.3-63.7
		c5.8-15,13.8-31.2,16.9-36.3c6.6-11.1,17.5-20.1,16.1-24.5C313.6,222.2,308.1,223.4,299.8,231.1z"/>
</g>
<path style="fill:#22191E;" d="M180.6,329.6c-0.4-1.4-0.6-4.1,0.6-14.3c2.4-20.3,13.6-59.4,58.5-110.7l20.7,4.1
	c0,0-17.9,10.9-25,18.3c-7.1,7.4-41.6,40.7-51,101.5C183.8,332.2,181.5,332.7,180.6,329.6z"/>
<g>
	<path style="fill:#F8F9FE;" d="M309.3,115.3c0,0,3.3-2.8,8.9,0c0,0,7.5,7.5,15,2.8c0,0,8.9-4.4,2.8-13.6c0,0-6.1-8.6-20.2-5.8
		c0,0-15,4.2-17.5,9.4c0,0-4.7,6.4,0.6,8.9C298.8,117,305.2,118.3,309.3,115.3z"/>
	<path style="fill:#F8F9FE;" d="M227.9,117c0,0,3.3-2.8,8.9,0c0,0,7.5,7.5,15,2.8c0,0,8.9-4.4,2.8-13.6c0,0-6.1-8.6-20.2-5.8
		c0,0-15,4.2-17.5,9.4c0,0-4.7,6.4,0.6,8.9C217.3,118.6,223.7,120,227.9,117z"/>
</g>
<g>
</g>
<g>
</g>
<g>
</g>
<g>
</g>
<g>
</g>
<g>
</g>
<g>
</g>
<g>
</g>
<g>
</g>
<g>
</g>
<g>
</g>
<g>
</g>
<g>
</g>
<g>
</g>
<g>
</g>
</svg>
